# xmcd
#
# Track frame offsets:
#	150
#	14552
#	31430
#	42460
#	54955
#	65670
#	77010
#	86127
#	101582
#	113852
#	123725
#	135375
#	153497
#	164932
#	177542
#	188587
#	199862
#	219247
#	230052
#	242237
#	256590
#	270247
#	288172
#	300600
#	309272
#	321395
#
# Disc length: 4469 seconds
#
# Revision: 1
# Processed by: cddbd v1.5.2PL0 Copyright (c) Steve Scherf et al.
# Submitted via: audiograbber 1.83.01
#
DISCID=7611731a
DTITLE=Maureen Moore - Spotlight on Maureen Moore
DYEAR=1998
DGENRE=Vocal
TTITLE0=The end of the world
TTITLE1=Doggone my soul
TTITLE2=Tonight we love
TTITLE3=San Antonio Rose
TTITLE4=No one will ever know
TTITLE5=One more time
TTITLE6=Softly my love
TTITLE7=Love is the foundation
TTITLE8=The way we were
TTITLE9=I wanna sing a song
TTITLE10=The last thing on my mind
TTITLE11=Blue Bayou
TTITLE12=Stand in
TTITLE13=Cold and lonely
TTITLE14=I wish I had someone to love me
TTITLE15=He gives me love
TTITLE16=Feelings
TTITLE17=When my blue moon turns to gold again
TTITLE18=Remember me
TTITLE19=Married to a memory
TTITLE20=This heart can't break again
TTITLE21=Ramblin' boy
TTITLE22=The middle of the night is my crying time
TTITLE23=What's she doing in my world
TTITLE24=Lead me on
TTITLE25=The music played
EXTD=
EXTT0=
EXTT1=
EXTT2=
EXTT3=
EXTT4=
EXTT5=
EXTT6=
EXTT7=
EXTT8=
EXTT9=
EXTT10=
EXTT11=
EXTT12=
EXTT13=
EXTT14=
EXTT15=
EXTT16=
EXTT17=
EXTT18=
EXTT19=
EXTT20=
EXTT21=
EXTT22=
EXTT23=
EXTT24=
EXTT25=
PLAYORDER=
